<svg width="86" height="102" viewBox="0 0 86 102" fill="none" xmlns="http://www.w3.org/2000/svg">
    <path d="M85.2089 7.81996C85.2089 7.81996 76.4444 21.3754 56.9683 21.375C33.5967 21.3746 38.4656 6.25612 0 14.0761C0 14.0761 7.30357 2.08525 25.3191 0C52.099 0 47.717 15.6403 85.2089 7.81996Z" fill="#2563EB"/>
    <path fill-rule="evenodd" clip-rule="evenodd" d="M6.85856 19.5045C10.5131 22.82 15.595 27.5108 22.6608 34.1469C46.701 56.7259 43.017 89.3364 26.4912 95.3653C26.4912 95.3653 30.5936 101.942 43.017 101.942C55.4404 101.942 59.81 95.3653 59.81 95.3653C43.017 89.6105 39.054 56.7259 63.3728 34.1469C67.3798 30.4269 70.7925 27.3183 73.698 24.7204C69.0964 26.6244 63.5283 27.9518 56.9679 27.9518C46.0681 27.9515 39.7852 24.8409 34.8377 22.3918C33.687 21.8218 32.6088 21.2879 31.5611 20.8374C27.1456 18.9374 21.1245 17.2092 6.85856 19.5045ZM82.0375 11.5095C80.6309 12.8867 78.7446 14.4801 76.3566 15.9796C71.7848 18.8501 65.3741 21.3749 56.9683 21.3749C47.714 21.3745 42.8874 19.0043 38.0454 16.626C31.9504 13.6328 25.8306 10.6271 10.8255 12.3207C7.80533 12.6616 4.42501 13.1925 0.612823 13.9525C0.49557 13.852 0.38305 13.7555 0.274536 13.6627C0.580414 13.2232 1.14593 12.4599 1.99255 11.5095H82.0375Z" fill="#2563EB"/>
    <path d="M42.8776 101.942C53.1341 101.942 61.4487 98.3843 61.4487 93.9952C61.4487 89.6061 53.1341 86.0481 42.8776 86.0481C32.621 86.0481 24.3064 89.6061 24.3064 93.9952C24.3064 98.3843 32.621 101.942 42.8776 101.942Z" fill="#2563EB"/>
</svg>
